<svg xmlns="http://www.w3.org/2000/svg" viewBox="0 0 13.75 13.75"><defs><style>.cls-1{fill:#366cf7;stroke:#366cf7;stroke-miterlimit:10;stroke-width:0.75px;}</style></defs><title>Asset 2</title><g id="Layer_2" data-name="Layer 2"><g id="Layer_1-2" data-name="Layer 1"><path class="cls-1" d="M6.88,13.38a6.5,6.5,0,1,1,6.5-6.5A6.5,6.5,0,0,1,6.88,13.38ZM6.88,1a5.88,5.88,0,1,0,5.88,5.88A5.88,5.88,0,0,0,6.88,1Z"/><path class="cls-1" d="M6.88,10.32A.31.31,0,0,1,6.57,10V6.45a.31.31,0,0,1,.62,0V10A.31.31,0,0,1,6.88,10.32Z"/><circle class="cls-1" cx="6.88" cy="3.86" r="0.31"/><path class="cls-1" d="M6.88,4.33a.46.46,0,1,1,.46-.46A.46.46,0,0,1,6.88,4.33Zm0-.62A.15.15,0,1,0,7,3.86.15.15,0,0,0,6.88,3.71Z"/></g></g></svg>