<?xml version="1.0" encoding="utf-8"?>
<!-- Generator: Adobe Illustrator 21.0.0, SVG Export Plug-In . SVG Version: 6.00 Build 0)  -->
<svg version="1.1" id="Layer_1" xmlns="http://www.w3.org/2000/svg" xmlns:xlink="http://www.w3.org/1999/xlink" x="0px" y="0px"
	 viewBox="0 0 171 26" style="enable-background:new 0 0 171 26;" xml:space="preserve">
<style type="text/css">
	.st0{fill:#366CF7;}
</style>
<g>
	<g>
		<path class="st0" d="M12.9,1.9c0.8,0,1.5,0.1,1.9,0.2s0.7,0.4,0.9,0.7C15.8,3.3,16,4,16,4.8v12.5c0,2.3-0.8,4.3-2.5,6
			c-1.6,1.7-3.7,2.6-6.3,2.6c-1.4,0-2.7-0.3-3.8-0.9c-1-0.5-1.7-1-2.1-1.5L1,23.2c-0.6-0.7-1-1.4-1-2c0-0.6,0.4-1.2,1.1-2
			c0.8-0.8,1.4-1.2,2-1.2s1.2,0.4,1.9,1.1s1.5,1.1,2.3,1.1s1.5-0.3,2.1-0.8c0.5-0.6,0.8-1.3,0.8-2.2V5c0-1.3,0.2-2.1,0.6-2.5
			C11.4,2.1,12,1.9,12.9,1.9z"/>
		<path class="st0" d="M26.7,25.5c-2.2,0-4-0.8-5.4-2.5c-1.4-1.6-2.1-3.7-2.1-6v-5.7c0-0.5,0-0.9,0-1.1c0-0.2,0.1-0.5,0.3-0.8
			c0.3-0.6,1.1-0.9,2.5-0.9c1.5,0,2.4,0.4,2.6,1.2c0.1,0.3,0.2,0.9,0.2,1.6V17c0,0.9,0.3,1.6,0.8,2.1s1.2,0.7,2,0.7
			c0.9,0,1.5-0.3,2.1-0.8c0.5-0.5,0.8-1.2,0.8-2v-5.7c0-0.5,0-0.9,0-1.1c0-0.2,0.1-0.5,0.3-0.9c0.3-0.6,1.1-0.8,2.5-0.8
			c1.4,0,2.2,0.3,2.5,0.9C36,9.7,36,10,36.1,10.3s0,0.6,0,1.1v11.4c0,0.5,0,0.8,0,1.1c0,0.2-0.1,0.5-0.3,0.8
			c-0.3,0.6-1.2,0.8-2.5,0.8s-2.1-0.3-2.4-0.8c-0.2-0.4-0.3-0.8-0.3-1.3c-0.1,0.2-0.3,0.4-0.6,0.6c-0.3,0.3-0.6,0.5-0.9,0.7
			C28.4,25.3,27.6,25.5,26.7,25.5z"/>
		<path class="st0" d="M39.4,3.4c0-0.5,0-0.9,0-1.1c0-0.2,0.1-0.5,0.3-0.9c0.3-0.6,1.1-0.9,2.5-0.9c1.3,0,2.1,0.3,2.5,0.9
			C44.9,1.8,45,2,45,2.3s0,0.6,0,1.1v15c0,0.8,0.1,1.3,0.2,1.5c0.1,0.2,0.4,0.3,0.9,0.3c0.4,0,0.7,0,0.9,0s0.3,0.1,0.5,0.3
			c0.4,0.3,0.6,1,0.6,2.3c0,1.4-0.2,2.2-0.6,2.5c-0.6,0.4-1.9,0.5-4,0.2c-1.7-0.2-2.7-0.8-3.2-1.6c-0.6-1.1-0.9-2.7-0.9-5V3.4z"/>
		<path class="st0" d="M50.6,11.4c0-0.5,0-0.9,0-1.1c0-0.2,0.1-0.5,0.3-0.9c0.3-0.6,1.1-0.8,2.5-0.8c1,0,1.8,0.2,2.2,0.5
			s0.6,0.8,0.6,1.4c0,0.2,0,0.5,0,0.9v11.3c0,0.5,0,0.9,0,1.1s-0.1,0.5-0.3,0.9c-0.3,0.6-1.1,0.8-2.5,0.8s-2.2-0.3-2.5-0.9
			c-0.2-0.3-0.2-0.6-0.3-0.8c0-0.2,0-0.6,0-1.1V11.4z"/>
		<path class="st0" d="M70.5,10.4c0.1-1.2,1-1.8,2.6-1.8c0.8,0,1.5,0.1,1.9,0.2c0.4,0.1,0.7,0.4,0.9,0.7c0.2,0.3,0.3,0.6,0.3,0.9
			s0,0.6,0,1.1v11.3c0,0.5,0,0.9,0,1.1s-0.1,0.5-0.3,0.9c-0.3,0.6-1,0.8-2.2,0.8s-2-0.1-2.4-0.4s-0.6-0.7-0.7-1.3
			c-0.8,1.1-2.1,1.7-4,1.7S63,24.8,61.4,23c-1.6-1.7-2.4-3.7-2.4-5.9s0.8-4.2,2.4-5.9c1.6-1.7,3.4-2.5,5.3-2.5c0.7,0,1.4,0.1,2,0.4
			c0.6,0.3,1,0.5,1.3,0.7C70.2,9.9,70.4,10.2,70.5,10.4z M64.7,17.1c0,0.7,0.3,1.4,0.8,1.9c0.6,0.6,1.2,0.9,2,0.9s1.5-0.3,2-0.9
			s0.8-1.2,0.8-1.9c0-0.7-0.3-1.4-0.8-2s-1.2-0.9-2-0.9c-0.9,0-1.5,0.3-2.1,0.9C64.9,15.7,64.7,16.4,64.7,17.1z"/>
		<path class="st0" d="M82.3,1.9h6c3.1,0,5.9,1.1,8.2,3.4c2.4,2.3,3.6,5,3.6,8.3s-1.2,6.1-3.5,8.4s-5.1,3.5-8.4,3.5h-5.9
			c-1.3,0-2.1-0.3-2.5-0.8c-0.3-0.5-0.4-1.1-0.4-2.1v-18c0-0.5,0-0.9,0-1.1c0-0.2,0.1-0.5,0.3-0.8C80,2.2,80.9,1.9,82.3,1.9z
			 M92.4,18.1c1.2-1.2,1.9-2.6,1.9-4.3s-0.6-3.2-1.8-4.4c-1.2-1.2-2.6-1.8-4.3-1.8h-3.1v12.2h3.1C89.8,19.8,91.2,19.3,92.4,18.1z"/>
		<path class="st0" d="M113.8,10.4c0.1-1.2,1-1.8,2.6-1.8c0.8,0,1.5,0.1,1.9,0.2c0.4,0.1,0.7,0.4,0.9,0.7c0.2,0.3,0.3,0.6,0.3,0.9
			s0,0.6,0,1.1v11.3c0,0.5,0,0.9,0,1.1s-0.1,0.5-0.3,0.9c-0.3,0.6-1,0.8-2.2,0.8s-2-0.1-2.4-0.4s-0.6-0.7-0.7-1.3
			c-0.8,1.1-2.1,1.7-4,1.7s-3.6-0.8-5.2-2.6c-1.6-1.7-2.4-3.7-2.4-5.9s0.8-4.2,2.4-5.9s3.4-2.5,5.3-2.5c0.7,0,1.4,0.1,2,0.4
			c0.6,0.3,1,0.5,1.3,0.7C113.5,9.9,113.7,10.2,113.8,10.4z M107.9,17.1c0,0.7,0.3,1.4,0.8,1.9c0.6,0.6,1.2,0.9,2,0.9s1.5-0.3,2-0.9
			s0.8-1.2,0.8-1.9c0-0.7-0.3-1.4-0.8-2s-1.2-0.9-2-0.9c-0.9,0-1.5,0.3-2.1,0.9C108.2,15.7,107.9,16.4,107.9,17.1z"/>
		<path class="st0" d="M132.5,14.3l-2.1-0.1v4.5c0,0.6,0.1,1,0.3,1.3s0.5,0.4,1,0.4s0.9,0,1.2,0s0.6,0.1,0.9,0.3
			c0.5,0.3,0.7,1,0.7,2.2c0,1.4-0.3,2.2-0.9,2.5c-0.3,0.2-0.6,0.2-0.9,0.3c-0.2,0-0.6,0-1.1,0c-2.2,0-3.9-0.5-5.1-1.5
			s-1.7-2.7-1.7-5.1v-4.8c-0.4,0.1-0.9,0.1-1.3,0.1c-0.5,0-0.9-0.2-1.2-0.5c-0.3-0.4-0.5-1-0.5-1.9s0.1-1.5,0.2-1.9s0.3-0.7,0.5-0.9
			c0.3-0.3,0.8-0.4,1.3-0.4l1.1,0.1V5.4c0-0.5,0-0.9,0-1.1s0.1-0.5,0.3-0.8c0.3-0.5,1.1-0.8,2.5-0.8c1.5,0,2.3,0.4,2.6,1.2
			c0.1,0.3,0.2,0.9,0.2,1.6v3.2c0.9-0.1,1.7-0.1,2.1-0.1s0.9,0,1.1,0s0.5,0.1,0.9,0.3c0.6,0.3,0.8,1.1,0.8,2.5s-0.3,2.2-0.9,2.5
			c-0.3,0.2-0.6,0.2-0.9,0.3C133.4,14.3,133,14.3,132.5,14.3z"/>
		<path class="st0" d="M156.4,24.1c-0.4-0.3-0.6-0.7-0.6-1.2s0.4-1.4,1.2-2.6c0.2-0.4,0.6-0.5,1.1-0.5s1.2,0.3,2.1,0.8
			c0.9,0.5,1.7,0.8,2.5,0.8c1.3,0,2-0.3,2-0.8c0-0.4-0.7-0.7-2.2-0.9c-1.4-0.2-2.7-0.7-4-1.5c-0.6-0.4-1.1-1-1.6-1.8
			c-0.4-0.8-0.6-1.8-0.6-3c0-3.4,2.3-5.1,7-5.1c1.5,0,3.1,0.4,4.7,1.1c0.8,0.3,1.1,0.8,1.1,1.3s-0.2,1.2-0.7,1.9
			c-0.5,0.8-1,1.1-1.5,1.1c-0.3,0-0.7-0.2-1.4-0.5s-1.5-0.5-2.3-0.5c-1.3,0-1.9,0.2-1.9,0.7c0,0.6,0.7,1.1,2.2,1.3
			c1.4,0.2,2.8,0.6,4.1,1.2c0.6,0.3,1.1,0.8,1.6,1.6c0.4,0.7,0.6,1.7,0.6,2.8s-0.2,2.1-0.6,2.9c-0.4,0.8-1,1.4-1.8,1.8
			c-1.4,0.7-3.1,1-5.2,1C160.3,25.9,158.4,25.3,156.4,24.1z"/>
	</g>
	<g>
		<path class="st0" d="M55.3,0.5c-1.4,0-1.8,1.2-1.8,1.2S53,0.5,51.7,0.5c-1.4,0-2.2,1.3-2.2,2.4c0,1.8,4,4.4,4,4.4s4-2.6,4-4.4
			C57.5,1.8,56.7,0.5,55.3,0.5z"/>
	</g>
	<path class="st0" d="M150.5,20.2c-0.3,0-0.8,0.1-1.3,0.4l-0.4,0.1c-0.7,0.3-1.7,0.4-2.9,0.4c-0.7,0-1.4-0.2-2.1-0.6
		c-0.7-0.4-1.1-0.9-1.1-1.5h7.7c0.8,0,1.5-0.3,2.2-1c0.7-0.6,1-1.6,1-2.9s-0.4-2.5-1.1-3.7c-1.4-2.1-3.6-3.2-6.6-3.2
		c-2.6,0-4.8,0.8-6.6,2.4s-2.6,3.8-2.6,6.5c0,2.2,0.7,4.1,2,5.8c0.7,0.9,1.7,1.6,2.9,2.2c1.2,0.5,2.7,0.8,4.2,0.8
		c4.6,0,6.9-1,6.9-2.9c0-0.4-0.1-0.9-0.4-1.5C151.8,20.7,151.2,20.2,150.5,20.2z M145.5,13.2c1.6,0,2.8,1.3,2.8,2.8h-5.7
		C142.7,14.5,143.9,13.2,145.5,13.2z"/>
</g>
</svg>
