<svg xmlns="http://www.w3.org/2000/svg" viewBox="0 0 25.25 18.85"><defs><style>.cls-1{fill:#fff;stroke:#fff;stroke-miterlimit:10;stroke-width:0.25px;}</style></defs><title>Asset 1</title><g id="Layer_2" data-name="Layer 2"><g id="Layer_1-2" data-name="Layer 1"><path class="cls-1" d="M24.22,1a3,3,0,0,0-2.1-.9H2.92a2.68,2.68,0,0,0-2,1.1,2.86,2.86,0,0,0-.8,2.1v12.2A3,3,0,0,0,3,18.73h19.2a3,3,0,0,0,2.9-3.2V3.32A3.08,3.08,0,0,0,24.22,1ZM3,1.72h19.4l-9.8,8.9-10-8.8C2.73,1.72,2.83,1.72,3,1.72Zm20.7,1.7v12.2c0,.2-.1.3-.1.5l-7.4-6.8,7.4-6.5C23.63,2.93,23.72,3.22,23.72,3.43Zm-13.9,6.8,2.2,2a.85.85,0,0,0,.6.2.65.65,0,0,0,.5-.2l2.1-1.9,7.5,6.9a.9.9,0,0,1-.5.1L3,17.23a.9.9,0,0,1-.5-.1Zm-8.3,5.4V3.32a.9.9,0,0,1,.1-.5l7.2,6.3-7.2,6.8C1.52,15.92,1.52,15.83,1.52,15.63Z"/></g></g></svg>