<svg xmlns="http://www.w3.org/2000/svg" viewBox="0 0 28.24 22.59"><defs><style>.cls-1{fill:#fff;}</style></defs><title>Asset 1</title><g id="Layer_2" data-name="Layer 2"><g id="Layer_1-2" data-name="Layer 1"><path class="cls-1" d="M14.09,22.59H2.88A2.69,2.69,0,0,1,.36,21.16,3.19,3.19,0,0,1,0,19.77c0-4.22,0-8.46,0-12.69A2.73,2.73,0,0,1,2.8,4.24c1,0,1.95,0,2.92,0S7.1,4,7.44,3c.23-.69.45-1.38.69-2.08A1.24,1.24,0,0,1,9.43,0h9.35a1.23,1.23,0,0,1,1.3.93c.25.75.49,1.5.75,2.24a1.32,1.32,0,0,0,1.48,1.06c1,0,1.95,0,2.92,0a2.88,2.88,0,0,1,3,3c-.07,4.16-.06,8.33,0,12.51a2.87,2.87,0,0,1-2.89,2.87c-3.74,0-7.5,0-11.25,0Zm-7-9.9a7.06,7.06,0,1,0,7.07-7A7.06,7.06,0,0,0,7.06,12.69Zm7.06,4.25a4.23,4.23,0,1,1,4.23-4.22,4.28,4.28,0,0,1-1.24,3A4.22,4.22,0,0,1,14.12,16.94Z"/></g></g></svg>